<svg id="Layer_1" data-name="Layer 1" xmlns="http://www.w3.org/2000/svg" viewBox="0 0 630 360"><defs><style>.cls-1{fill:#000268;}.cls-2{fill:#fff;}.cls-3{fill:#ff0007;}</style></defs><title>87_white</title><g id="layer1"><path id="_92653320" data-name=" 92653320" class="cls-1" d="M80,115.22A36.36,36.36,0,0,1,116.45,79h397.1A36.36,36.36,0,0,1,550,115.22V244.78A36.33,36.33,0,0,1,513.55,281H116.45A36.28,36.28,0,0,1,80,244.83Z"/><path id="_92186184" data-name=" 92186184" class="cls-2" d="M95,116.5V243.61a22.7,22.7,0,0,0,22.76,22.65h208V93.84h-208A22.7,22.7,0,0,0,95,116.5Zm284.58,62.92c0,8.11-4,13.63-10.61,13.63-5.84,0-10.72-5.57-10.72-13,0-7.58,4.3-13.26,10.72-13.26C375.72,166.84,379.54,172.68,379.54,179.42ZM340.6,225.84h17.56V198.25h.21c3.34,6.05,10,8.28,16.08,8.28,15.12,0,23.18-12.47,23.18-27.49,0-12.3-7.69-25.62-21.75-25.62-8,0-15.39,3.24-18.94,10.35h-.21v-9.18H340.55v71.25Zm81-36.61c0-4.88,4.67-6.74,10.61-6.74,2.65,0,5.15.16,7.43.27,0,5.94-4.19,12-10.82,12-4.09.05-7.22-2-7.22-5.52Zm35.44,16.13a60.61,60.61,0,0,1-.95-12V174.43c0-15.49-11.2-21.06-24.2-21.06a52.27,52.27,0,0,0-20.26,3.6l.32,11.89A32.64,32.64,0,0,1,428.14,165c6.31,0,11.51,1.86,11.62,8.81a52.4,52.4,0,0,0-8.18-.69c-9.33,0-26.2,1.85-26.2,17.34,0,11,9,16,19,16,7.21,0,12.1-2.81,16.07-9.17h.22c0,2.65.26,5.25.37,8h16Zm7.85,20.48A50.74,50.74,0,0,0,475.83,227c16.08,0,19.9-12.42,24.88-25.15l18.63-47.27H501.77l-10.45,33.16h-.16l-10.93-33.16H461.35l20.58,52c-1.27,4.51-4.56,7-8.86,7a22.43,22.43,0,0,1-6.95-1.06l-1.22,13.32Z"/><path id="_47303032" data-name=" 47303032" class="cls-3" d="M137.83,179.52c0-7,3.39-12.68,10-12.68,7.91,0,11.2,6.32,11.2,12,0,7.8-5,13-11.2,13-5.3,0-10-4.45-10-12.36Zm38.14-25H160.06v9.18h-.16c-3.72-6.26-9.76-10.34-17.24-10.34-15.81,0-22.92,11.3-22.92,26.42s8.7,25.57,22.6,25.57a19.82,19.82,0,0,0,17.08-8.7h.21v2.76c0,9.92-5.46,14.69-15.59,14.69a34.76,34.76,0,0,1-17.19-4.19l-.91,13.85A58.71,58.71,0,0,0,145.36,227c20.48,0,30.61-6.74,30.61-27.59Zm29.66-21.16H188.07v12.89h17.56V133.37Zm-17.56,72h17.56V154.53H188.07ZM254.49,154a41.67,41.67,0,0,0-5.94-.58c-7.59,0-12,4.08-15,10.55h-.22v-9.33h-16v50.82h17.56V184c0-10,4.61-15.92,12.78-15.92a20,20,0,0,1,5.94.59l.85-14.7Zm30.24,40.27c-8.11,0-11.4-6.74-11.4-14.22s3.29-14.32,11.4-14.32,11.41,6.73,11.41,14.32S292.8,194.22,284.73,194.22Zm0,12.31c16.77,0,29.55-9.77,29.55-26.53s-12.78-26.63-29.55-26.63-29.55,9.76-29.55,26.63S267.92,206.53,284.73,206.53Z"/></g></svg>