<?xml version="1.0" encoding="utf-8"?>
<!-- Generator: Adobe Illustrator 23.0.0, SVG Export Plug-In . SVG Version: 6.00 Build 0)  -->
<svg version="1.1" id="Layer_1" xmlns="http://www.w3.org/2000/svg" xmlns:xlink="http://www.w3.org/1999/xlink" x="0px" y="0px"
	 viewBox="0 0 630 360" style="enable-background:new 0 0 630 360;" xml:space="preserve">
<style type="text/css">
	.st0{fill:#00A2E5;}
	.st1{fill:#7375CF;}
	.st2{fill:#EB001B;}
</style>
<title>24_white</title>
<g>
	<path class="st0" d="M458.3,195.7v-3.5h-0.9l-1,2.3l-1-2.3h-0.9v3.5h0.6v-2.6l1,2.3h0.7l1-2.3v2.6H458.3z M452.5,195.7v-2.9h1.2
		v-0.6h-2.9v0.6h1.2v2.9H452.5z"/>
	<path class="st1" d="M355.7,210.7h-78.1V69.2h78.1V210.7L355.7,210.7z"/>
	<path class="st2" d="M282.7,139.9c0-28.7,13.3-54.3,34-70.8C301.6,57.1,282.4,50,261.6,50c-49.2,0-89.2,40.3-89.2,90s40,90,89.2,90
		c20.8,0,40-7.2,55.1-19.2C295.9,194.2,282.7,168.6,282.7,139.9"/>
	<path class="st0" d="M461,139.9c0,49.7-40,90-89.2,90c-20.8,0-40-7.2-55.1-19.2c20.8-16.4,34-42.1,34-70.8s-13.3-54.3-34-70.8
		C331.9,57.1,351.1,50,371.8,50C421,50,461,90.3,461,139.9"/>
</g>
<g>
	<path d="M427.6,268.3c1.9,0,4.8,0.3,6.6,1.1l-2.9,9c-2.1-0.8-4-1.1-5.8-1.1c-6.1,0-9.3,4-9.3,11.2v24.6h-9.6v-43.8h9.3v5.3
		C418.7,270.7,422.4,268.3,427.6,268.3 M392.7,278h-15.4v19.8c0,4.3,1.6,7.2,6.4,7.2c2.4,0,5.6-0.8,8.5-2.4l2.7,8.2
		c-2.9,2.1-7.7,3.5-12,3.5c-11.2,0-15.1-6.1-15.1-16.3v-20.1h-8.8v-8.8h8.8v-13.4h9.6v13.4h15.4V278L392.7,278z M271.8,287.3
		c1.1-6.4,4.8-10.6,11.7-10.6c6.1,0,10.1,3.7,11.2,10.6H271.8z M304.3,291.3c0-13.7-8.5-23-20.6-23c-12.8,0-21.7,9.3-21.7,23
		c0,14,9.3,23,22.2,23c6.6,0,12.5-1.6,17.7-6.1l-4.8-6.9c-3.7,2.9-8.2,4.5-12.8,4.5c-6.1,0-11.7-2.9-13-10.6h32.3
		C304.1,293.7,304.3,292.6,304.3,291.3 M345.9,280.7c-2.7-1.6-8-3.7-13.6-3.7c-5.3,0-8.2,1.9-8.2,5c0,2.9,3.2,3.7,7.4,4.3l4.5,0.5
		c9.6,1.3,15.1,5.3,15.1,13.2c0,8.2-7.2,14.5-19.8,14.5c-7.2,0-13.8-1.9-18.7-5.6l4.5-7.4c3.2,2.4,8,4.5,14.6,4.5
		c6.4,0,9.8-1.9,9.8-5.3c0-2.4-2.4-3.7-7.7-4.5l-4.5-0.5c-9.8-1.3-15.1-5.8-15.1-12.9c0-8.8,7.2-14.2,17.9-14.2
		c6.9,0,13.3,1.6,17.7,4.5L345.9,280.7z M462.3,277.2c-1.9,0-3.7,0.3-5.3,1.1c-1.6,0.8-3.2,1.6-4.3,2.9c-1.1,1.3-2.1,2.7-2.9,4.5
		c-0.8,1.6-1.1,3.7-1.1,5.6c0,2.1,0.3,4,1.1,5.6c0.8,1.6,1.6,3.2,2.9,4.5c1.3,1.3,2.7,2.1,4.3,2.9s3.5,1.1,5.3,1.1s3.7-0.3,5.3-1.1
		c1.6-0.8,3.2-1.6,4.3-2.9c1.3-1.3,2.1-2.7,2.9-4.5c0.8-1.6,1.1-3.7,1.1-5.6c0-2.1-0.3-4-1.1-5.6c-0.8-1.6-1.6-3.2-2.9-4.5
		s-2.7-2.1-4.3-2.9C466,277.7,464.2,277.2,462.3,277.2 M462.3,268.3c3.5,0,6.6,0.5,9.3,1.9c2.9,1.1,5.3,2.7,7.4,4.8s3.7,4.5,5,7.2
		c1.1,2.9,1.9,5.8,1.9,9s-0.5,6.4-1.9,9c-1.1,2.9-2.9,5.3-5,7.2c-2.1,2.1-4.5,3.7-7.4,4.8c-2.9,1.1-6.1,1.9-9.3,1.9
		c-3.5,0-6.6-0.5-9.3-1.9c-2.9-1.1-5.3-2.7-7.4-4.8s-3.7-4.5-5-7.2c-1.1-2.9-1.9-5.8-1.9-9s0.5-6.4,1.9-9c1.1-2.9,2.9-5.3,5-7.2
		c2.1-2.1,4.5-3.7,7.4-4.8C455.8,268.8,458.8,268.3,462.3,268.3 M216.8,291.3c0-7.7,5-14.2,13.3-14.2c8,0,13,6.1,13,14.2
		c0,8-5.3,14-13,14C221.7,305.2,216.8,299.1,216.8,291.3 M252,291.3v-21.9h-9.6v5.3c-2.9-4-7.4-6.4-13.8-6.4
		c-12.2,0-21.7,9.6-21.7,23c0,13.4,9.6,23,21.7,23c6.1,0,10.6-2.4,13.8-6.4v5.3h9.6V291.3z M198.7,313.2v-27.5
		c0-10.4-6.6-17.4-17.1-17.4c-5.6,0-11.4,1.6-15.4,7.7c-2.9-4.8-7.7-7.7-14.3-7.7c-4.5,0-9.3,1.3-12.8,6.4v-5.3h-9.6v43.8h9.6v-24.3
		c0-7.4,4.3-11.7,10.6-11.7s9.6,4,9.6,11.4v24.3h9.6v-24.3c0-7.4,4.5-11.7,10.6-11.7c6.4,0,9.6,4,9.6,11.4v24.3h9.8v0.5H198.7z"/>
	<path d="M495.9,309.8v1.1h1.1c0.3,0,0.5,0,0.5-0.3c0.3,0,0.3-0.3,0.3-0.5c0-0.3,0-0.3-0.3-0.3c0,0-0.3-0.3-0.5-0.3h-1.1V309.8z
		 M497,309.2c0.5,0,0.8,0,1.1,0.3c0.3,0.3,0.5,0.5,0.5,1.1c0,0.3,0,0.5-0.3,0.8s-0.5,0.3-1.1,0.3l1.3,1.6h-1.1l-1.3-1.6h-0.3v1.6
		h-0.8v-4L497,309.2L497,309.2z M496.7,314.5c0.5,0,0.8,0,1.3-0.3c0.5-0.3,0.8-0.5,1.1-0.8c0.3-0.3,0.5-0.5,0.8-1.1
		c0.3-0.5,0.3-0.8,0.3-1.3s0-0.8-0.3-1.3c-0.3-0.5-0.5-0.8-0.8-1.1c-0.3-0.3-0.5-0.5-1.1-0.8c-0.3-0.3-0.8-0.3-1.3-0.3
		c-0.5,0-0.8,0-1.3,0.3s-0.8,0.5-1.1,0.8c-0.3,0.3-0.5,0.8-0.8,1.1c-0.3,0.5-0.3,0.8-0.3,1.3s0,0.8,0.3,1.3s0.5,0.8,0.8,1.1
		c0.3,0.3,0.8,0.5,1.1,0.8C495.9,314.5,496.2,314.5,496.7,314.5 M496.7,306.8c0.5,0,1.1,0,1.6,0.3c0.5,0.3,1.1,0.5,1.3,0.8
		c0.3,0.3,0.8,0.8,1.1,1.3c0.3,0.5,0.3,1.1,0.3,1.6c0,0.5,0,1.1-0.3,1.6c-0.3,0.5-0.5,1.1-1.1,1.3s-0.8,0.8-1.3,1.1
		c-0.5,0.3-1.1,0.3-1.6,0.3c-0.5,0-1.3,0-1.9-0.3c-0.5-0.3-1.1-0.5-1.3-1.1c-0.3-0.3-0.8-0.8-1.1-1.3s-0.3-1.1-0.3-1.6
		c0-0.5,0-1.1,0.3-1.6c0.3-0.5,0.5-1.1,1.1-1.3c0.3-0.3,0.8-0.8,1.3-0.8C495.4,306.8,496.2,306.8,496.7,306.8"/>
</g>
</svg>
