<?xml version="1.0" encoding="utf-8"?>
<!-- Generator: Adobe Illustrator 23.0.0, SVG Export Plug-In . SVG Version: 6.00 Build 0)  -->
<svg version="1.1" id="Layer_1" xmlns="http://www.w3.org/2000/svg" xmlns:xlink="http://www.w3.org/1999/xlink" x="0px" y="0px"
	 viewBox="0 0 630 360" style="enable-background:new 0 0 630 360;" xml:space="preserve">
<style type="text/css">
	.st0{fill:#EE7F00;}
	.st1{fill:#3A3A3A;}
</style>
<title>24_white</title>
<g id="icons--sofortueberweisung" transform="matrix(0.54981622,0,0,0.54981622,271.3869,-35.870245)">
	<path id="path442" class="st0" d="M352,294.4c-5.2,14.1-14.5,22.9-32.3,22.9h-0.1l-9.2,0l15.7-42.7h8.9
		C351.5,274.5,357.6,279.3,352,294.4 M399.1,255.4c-8-11.6-24.2-17.3-49.7-17.3h-58.9l-63.7,176.7H281l23.2-62.2
		c1.1,2.6,14.8,62.2,14.8,62.2h56.9c0,0-10.3-43.8-18-61.5c-2-4.5-4-9.7-6.7-13.9c16.1-6,39.3-19,49-45.2
		C406.1,278,405.7,264.9,399.1,255.4 M-144.5,237.9h-100.3c-15.8,0-31.2,0-44.9,7c-13.8,7.1-25.9,21.2-35.3,49.4
		c-2,6.1-3.1,11.3-3.2,15.8c-0.1,4.6,0.6,8.4,2.3,11.8c2.1,4.1,5.5,8,9.8,11.2c4.3,3.2,9.4,5.9,14.9,7.6c0.2,0.1,3.1,0.9,6.6,1.9
		c3.4,1,6.8,2,10.2,3c1.5,0.5,3.2,1.1,4.7,2c1.5,0.9,2.9,2.1,3.7,3.8c0.6,1.1,0.9,2.4,0.9,3.7c0,1.3-0.2,2.7-0.7,4.2
		c-1.3,3.8-3.2,6.3-6.9,7.8c-3.7,1.5-9.2,2-17.4,2.1h-103.2l-16.3,45.3h110.5c10.4,0,29.4,0,47.7-7.8c18.3-7.8,35.8-23.5,43.2-54.9
		c2.8-11.8,1.9-21.4-2.6-28.9c-4.6-7.5-12.9-13-24.9-16.5c0,0-2.7-0.8-5.9-1.7c-3.2-0.9-6.8-2-8.7-2.5c-3.1-0.9-5.5-2.7-6.9-5
		c-1.4-2.3-1.8-5.1-1-7.9c0.8-3,2.8-5.3,5.7-6.9c2.9-1.6,6.7-2.5,11.2-2.5h64.2c0.4-0.7,0.9-1.4,1.3-2
		C-174.3,261.1-160.1,247.5-144.5,237.9"/>
	<path id="path444" class="st0" d="M-97.4,325.5c-15,41.4-25.9,51.9-42.2,51.9h0c-16,0-21.6-10.2-6.6-51.5
		c11.1-30.8,25.6-50.5,43.1-50.5h0C-86.6,275.4-82.8,285.1-97.4,325.5 M-46,254.5c-8.7-12.6-23.7-19.1-44.5-19.1
		c-13.6,0-26.8,3.2-39.2,9.1c-17.7,8.5-33.8,22.6-46.9,41.4c-8.5,12.2-15.8,26.3-21.5,42.1c-10.8,29.8-10.6,54,0.4,69.9
		c6.2,9,19.2,19.8,45.6,19.8h0.1c48.1,0,83.9-31.8,106.7-94.6C-39.4,306.4-31.5,275.4-46,254.5 M146.1,237.9H43.8
		c-28.6,0-49.8,14.6-59.9,41.9l-48.6,134.7h53.2l24.9-69.3l47,0l13.4-37.1l-46.9,0l7.5-21.5c1.6-3.8,5.3-6.9,10.8-6.9
		c3.1,0,37.6,0,55.4,0c0.5-0.7,0.9-1.4,1.3-2.1C113.9,261.1,130.5,247.5,146.1,237.9 M192.6,325.5c-15,41.4-25.9,51.9-42.2,51.9h0
		c-16,0-21.5-10.2-6.6-51.5c11.1-30.8,25.6-50.5,43-50.5h0C203.4,275.4,207.2,285.1,192.6,325.5 M244,254.5
		c-8.8-12.6-23.7-19.1-44.5-19.1c-13.6,0-26.8,3.2-39.2,9.1c-17.7,8.5-33.8,22.6-46.9,41.4c-8.5,12.2-15.8,26.3-21.5,42.1
		c-10.8,29.8-10.6,54,0.4,69.9c6.2,9,19.2,19.8,45.6,19.8h0.1c48.1,0,84-31.8,106.7-94.6C250.6,306.4,258.5,275.4,244,254.5"/>
	<path id="path440" class="st0" d="M401.6,238c3.4,2.7,6.4,5.9,8.8,9.4c6.3,9.2,8.7,20,7.3,32.5h32.2l-48.6,134.8h48.5L498.4,280
		h62.3l15.1-42L401.6,238L401.6,238z"/>
	<path id="path446" class="st1" d="M-332,441.6c-1.1,3.2-2.6,5.4-4.3,6.6c-1.7,1.3-4.3,1.9-7.7,1.9c-3.4,0-5.6-0.6-6.3-1.8
		c-0.7-1.2-0.6-3.4,0.5-6.4c1.2-3.2,2.6-5.4,4.3-6.7c1.7-1.2,4.2-1.9,7.7-1.9c3.4,0,5.6,0.6,6.3,1.8
		C-330.7,436.3-330.9,438.5-332,441.6 M-361.3,441.6c-1.1,3.2-2.5,5.4-4.2,6.6c-1.7,1.3-4.2,1.9-7.7,1.9c-3.5,0-5.6-0.6-6.3-1.8
		c-0.8-1.2-0.6-3.4,0.5-6.4c1.2-3.2,2.6-5.4,4.3-6.7c1.7-1.2,4.3-1.9,7.7-1.9c3.5,0,5.6,0.6,6.4,1.8
		C-360,436.3-360.2,438.5-361.3,441.6 M-345.6,512.9c-1.9,5.4-4.5,10.2-7.6,14.4c-3.1,4.3-6.7,7.8-10.8,10.8
		c-4.1,2.9-8.7,5.2-13.7,6.7c-5,1.5-10.4,2.3-16.3,2.3c-5.5,0-10.1-0.7-14-2.1c-3.8-1.4-6.8-3.5-8.8-6.3c-2-2.8-3-6.3-3.1-10.5
		c-0.1-4.2,0.9-9.1,2.9-14.7l19.2-53.4c0.2-0.5,0.4-0.9,0.8-1.2c0.4-0.4,1-0.7,1.8-0.9c0.8-0.2,1.7-0.4,2.9-0.5
		c1.2-0.1,2.6-0.2,4.4-0.2c1.7,0,3.1,0.1,4.2,0.2c1.1,0.1,1.9,0.3,2.5,0.5c0.6,0.2,1,0.5,1.1,0.9c0.2,0.4,0.2,0.8,0,1.2l-18.7,51.8
		c-1.3,3.5-1.9,6.5-2,9.1c-0.1,2.6,0.4,4.7,1.4,6.3c1,1.7,2.4,2.9,4.3,3.8c1.9,0.8,4.2,1.3,7,1.3c2.8,0,5.4-0.4,7.9-1.3
		c2.5-0.9,4.9-2.1,6.9-3.8c2.1-1.6,4-3.7,5.7-6.1c1.7-2.4,3.1-5.2,4.2-8.2l19-52.8c0.2-0.5,0.4-0.9,0.8-1.2c0.4-0.4,1-0.7,1.7-0.9
		c0.8-0.2,1.7-0.4,2.9-0.5c1.2-0.1,2.6-0.2,4.3-0.2c1.7,0,3.1,0.1,4.1,0.2c1,0.1,1.9,0.3,2.4,0.5c0.6,0.2,1,0.5,1.1,0.9
		c0.1,0.4,0.1,0.8,0,1.2L-345.6,512.9z M-269.6,482.4c0.6-1.8,0.9-3.3,0.9-4.7c0-1.4-0.4-2.6-1.2-3.5c-0.7-0.9-1.8-1.6-3.3-2.1
		c-1.5-0.5-3.5-0.7-6.3-0.7h-8.9l-8.2,22.8h9.9c2.6,0,4.7-0.3,6.4-0.9c1.7-0.6,3.3-1.4,4.7-2.5c1.4-1.1,2.6-2.3,3.6-3.7
		C-270.9,485.5-270.1,484-269.6,482.4 M-278.6,519.9c0.7-2,1.1-3.8,0.9-5.5c-0.1-1.6-0.6-2.9-1.5-4c-0.9-1.1-2.3-1.9-4.1-2.5
		c-1.8-0.6-4.3-0.9-7.5-0.9h-10.5l-9,24.9h12.7c2.5,0,4.6-0.2,6.5-0.8c1.8-0.5,3.6-1.3,5.2-2.3c1.6-1,3-2.3,4.3-3.8
		C-280.3,523.6-279.3,521.9-278.6,519.9 M-260.1,519.3c-1.1,3.1-2.6,5.9-4.3,8.5c-1.8,2.5-3.7,4.8-5.9,6.7c-2.2,1.9-4.6,3.6-7.2,5
		c-2.6,1.4-5.3,2.6-8.1,3.5c-2.9,0.9-5.8,1.6-8.7,2c-3,0.4-6.2,0.6-9.7,0.6h-23.1c-1.5,0-2.6-0.4-3.3-1.3c-0.7-0.9-0.7-2.3,0-4.3
		l27.6-76.5c0.7-2,1.7-3.4,3.1-4.3c1.3-0.9,2.7-1.3,4.2-1.3h21.8c5.3,0,9.7,0.4,13,1.4c3.4,0.9,6,2.3,7.9,4.1c1.9,1.8,3,4.1,3.3,6.9
		c0.3,2.8-0.2,6.1-1.5,9.9c-0.8,2.1-1.8,4.1-3,6c-1.2,1.9-2.6,3.6-4.2,5.1c-1.6,1.5-3.4,2.9-5.3,4.1c-1.9,1.2-4,2.1-6.2,2.8
		c2.3,0.5,4.3,1.2,6,2.4c1.7,1.1,3,2.6,3.9,4.4s1.4,3.9,1.4,6.3C-258.5,513.6-259,516.3-260.1,519.3 M-195.1,538.6
		c-0.5,1.3-0.9,2.4-1.4,3.3c-0.4,0.9-0.8,1.6-1.3,2.1c-0.4,0.6-0.8,0.9-1.3,1.2c-0.4,0.3-0.8,0.4-1.2,0.4h-43.6
		c-1.5,0-2.5-0.4-3.2-1.3c-0.7-0.9-0.7-2.3,0-4.3l27.6-76.5c0.7-2,1.7-3.4,3.1-4.3c1.3-0.9,2.7-1.3,4.2-1.3h43.4
		c0.4,0,0.7,0.1,0.9,0.3c0.2,0.2,0.4,0.6,0.4,1.2c0,0.6-0.1,1.3-0.3,2.2c-0.2,0.9-0.6,2-1,3.4c-0.5,1.3-0.9,2.3-1.3,3.2
		c-0.4,0.9-0.8,1.6-1.3,2.1c-0.4,0.5-0.8,0.9-1.2,1.2c-0.4,0.2-0.8,0.4-1.2,0.4h-31l-7.7,21.4h26.2c0.4,0,0.7,0.1,1,0.4
		c0.2,0.3,0.4,0.6,0.4,1.2c0,0.5-0.1,1.2-0.3,2.1c-0.2,0.9-0.5,1.9-1,3.2c-0.5,1.3-0.9,2.4-1.4,3.3c-0.4,0.9-0.8,1.6-1.2,2.1
		c-0.4,0.5-0.8,0.9-1.2,1.1c-0.4,0.2-0.8,0.3-1.2,0.3h-26.2l-8.9,24.7h31.3c0.4,0,0.7,0.1,1,0.4c0.2,0.2,0.4,0.6,0.4,1.2
		c0,0.5-0.1,1.3-0.3,2.1C-194.3,536.2-194.7,537.3-195.1,538.6 M-112.3,483.8c1-2.9,1.3-5.3,0.7-7.3c-0.6-2-2.2-3.4-4.9-4.2
		c-0.8-0.2-1.8-0.4-2.9-0.5c-1.1-0.1-2.6-0.2-4.7-0.2h-7.9l-9,24.9h9c2.5,0,4.8-0.3,6.9-0.9c2.1-0.6,4-1.5,5.6-2.6
		c1.6-1.1,3.1-2.4,4.3-4C-114,487.4-113,485.7-112.3,483.8 M-111,543.3c-0.2,0.5-0.4,0.9-0.7,1.3c-0.3,0.3-0.8,0.6-1.6,0.8
		c-0.8,0.2-1.8,0.4-3.1,0.5c-1.3,0.1-3.1,0.1-5.4,0.1c-1.9,0-3.4,0-4.4-0.1c-1.1-0.1-1.9-0.3-2.5-0.5c-0.6-0.2-0.9-0.6-1-0.9
		c-0.1-0.4-0.2-0.8-0.2-1.4l-0.7-19.6c-0.2-2.2-0.4-4.2-0.6-5.9c-0.3-1.7-0.8-3.1-1.4-4.3c-0.7-1.2-1.6-2-2.9-2.6
		c-1.2-0.6-2.8-0.9-4.6-0.9h-5.5l-12,33.4c-0.2,0.5-0.5,0.9-0.9,1.2c-0.4,0.4-1,0.7-1.8,0.9c-0.7,0.2-1.7,0.4-2.9,0.5
		c-1.2,0.1-2.6,0.2-4.4,0.2c-1.7,0-3.1-0.1-4.2-0.2c-1.1-0.1-1.9-0.3-2.5-0.5c-0.6-0.2-1-0.5-1.1-0.9c-0.1-0.4-0.1-0.8,0-1.2
		l28.7-79.7c0.7-2,1.7-3.4,3.1-4.3c1.3-0.9,2.7-1.3,4.2-1.3h22.5c2.3,0,4.1,0.1,5.6,0.1c1.3,0.1,2.6,0.2,3.9,0.3
		c3.3,0.5,6.1,1.4,8.5,2.6c2.4,1.2,4.2,2.8,5.4,4.8c1.2,2,1.9,4.3,2,7c0.1,2.7-0.5,5.8-1.8,9.3c-1.1,3-2.4,5.6-4,8
		c-1.6,2.4-3.5,4.6-5.6,6.5c-2.1,1.9-4.5,3.5-7.1,5c-2.6,1.4-5.4,2.5-8.4,3.4c1.1,0.6,2,1.4,2.8,2.3c0.8,0.9,1.5,2,2,3.3
		c0.5,1.3,1,2.8,1.3,4.4c0.3,1.7,0.5,3.5,0.6,5.6l1.1,17.3c0,1.7,0,3,0,3.8C-110.8,542.2-110.9,542.8-111,543.3 M-1.3,541.1
		c-0.7,1.1-1.3,2-2.1,2.6c-0.7,0.6-1.6,1.2-2.6,1.5c-1.1,0.3-2.4,0.6-3.9,0.7c-1.5,0.1-3.4,0.2-5.7,0.2c-2.6,0-4.6-0.1-6.1-0.2
		c-1.5-0.1-2.6-0.3-3.4-0.7c-0.8-0.3-1.2-0.8-1.4-1.5c-0.2-0.7-0.2-1.5,0-2.6l6.1-55.6h-0.1l-33.2,55.6c-0.6,1-1.2,1.9-1.9,2.5
		c-0.6,0.7-1.5,1.2-2.5,1.5c-1,0.4-2.3,0.6-3.8,0.7c-1.5,0.1-3.5,0.2-6,0.2c-2.6,0-4.6-0.1-6.1-0.2c-1.5-0.1-2.6-0.3-3.4-0.7
		c-0.8-0.3-1.2-0.8-1.4-1.5c-0.2-0.7-0.2-1.5-0.1-2.6l7.8-76.5c0.2-1.6,0.4-2.9,0.7-3.8c0.3-0.9,0.8-1.6,1.5-2.1
		c0.7-0.5,1.8-0.8,3.1-0.9c1.3-0.1,3.1-0.2,5.4-0.2c2.1,0,3.8,0,5,0.1c1.2,0.1,2.1,0.2,2.6,0.5c0.5,0.3,0.8,0.6,0.9,1.1
		c0.1,0.5,0,1.1-0.2,2l-9,67.2h0.1l39.9-66.7c0.5-0.8,1-1.6,1.5-2.1c0.5-0.5,1.1-1,1.9-1.3c0.8-0.3,1.8-0.5,3.1-0.6
		c1.2-0.1,2.9-0.2,4.9-0.2c2.2,0,3.8,0,5.1,0.1c1.2,0.1,2.2,0.3,2.7,0.6c0.6,0.3,0.9,0.7,1.1,1.3c0.1,0.5,0.1,1.3,0,2.2l-7.7,66.7
		h0.1l39.4-67c0.4-0.7,0.8-1.3,1.2-1.9c0.4-0.5,1-0.9,1.7-1.2c0.7-0.3,1.7-0.5,2.9-0.6c1.2-0.1,2.8-0.2,5-0.2c2,0,3.5,0.1,4.5,0.2
		c1,0.1,1.7,0.4,2.1,0.9c0.3,0.5,0.2,1.2-0.2,2.2c-0.4,1-1.1,2.3-2.1,4L-1.3,541.1z M89.7,538.6c-0.4,1.1-0.8,2.2-1.3,3.3
		c-0.4,0.9-0.9,1.6-1.3,2.1c-0.4,0.6-0.8,0.9-1.3,1.2c-0.4,0.3-0.8,0.4-1.2,0.4H41c-1.5,0-2.6-0.4-3.2-1.3c-0.7-0.9-0.7-2.3,0-4.3
		l27.6-76.5c0.7-2,1.7-3.4,3.1-4.3c1.3-0.9,2.7-1.3,4.2-1.3H116c0.4,0,0.7,0.1,0.9,0.3c0.2,0.2,0.4,0.6,0.4,1.2
		c0,0.6-0.1,1.3-0.3,2.2c-0.2,0.9-0.5,2-1,3.4c-0.4,1.1-0.8,2.2-1.3,3.2c-0.4,0.9-0.8,1.6-1.3,2.1c-0.4,0.5-0.8,0.9-1.2,1.2
		c-0.4,0.2-0.8,0.4-1.2,0.4h-31l-7.7,21.4h26.2c0.4,0,0.7,0.1,1,0.4c0.2,0.3,0.4,0.6,0.4,1.2c0,0.5,0,1.2-0.3,2.1
		c-0.2,0.9-0.5,1.9-1,3.2c-0.5,1.3-0.9,2.4-1.3,3.3c-0.4,0.9-0.8,1.6-1.2,2.1c-0.4,0.5-0.8,0.9-1.2,1.1c-0.4,0.2-0.8,0.3-1.2,0.3
		H67.3l-8.9,24.7h31.3c0.4,0,0.7,0.1,1,0.4c0.2,0.2,0.4,0.6,0.4,1.2c0,0.5-0.1,1.3-0.3,2.1C90.6,536.2,90.2,537.3,89.7,538.6
		 M127.2,543.2c-0.2,0.5-0.4,0.9-0.9,1.2c-0.4,0.4-1,0.6-1.8,0.9c-0.8,0.2-1.7,0.4-2.9,0.6c-1.2,0.1-2.6,0.2-4.4,0.2
		c-1.7,0-3.1-0.1-4.2-0.2c-1.1-0.1-1.9-0.3-2.5-0.6c-0.6-0.2-1-0.5-1.1-0.9c-0.2-0.4-0.2-0.8,0-1.2l29.8-82.8
		c0.2-0.4,0.5-0.9,0.9-1.2c0.4-0.4,1-0.7,1.8-0.9c0.8-0.2,1.7-0.4,2.9-0.6c1.2-0.1,2.6-0.2,4.3-0.2c1.7,0,3.1,0.1,4.2,0.2
		c1.1,0.1,1.9,0.3,2.5,0.6c0.6,0.2,1,0.5,1.1,0.9c0.2,0.4,0.2,0.8,0,1.2L127.2,543.2z M213.1,519.3c-1.7,4.6-4,8.7-6.9,12.1
		c-3,3.5-6.3,6.4-10.1,8.7c-3.7,2.3-7.8,4.1-12.1,5.3c-4.3,1.2-8.7,1.8-13.1,1.8c-3,0-5.7-0.3-8.1-0.7c-2.4-0.5-4.5-1.1-6.2-1.8
		c-1.7-0.7-3.1-1.4-4.1-2.2c-1-0.8-1.8-1.4-2.1-2c-0.4-0.6-0.5-1.4-0.3-2.5c0.1-1.1,0.6-2.7,1.4-4.8c0.5-1.4,1-2.6,1.4-3.5
		c0.4-1,0.9-1.7,1.3-2.3c0.4-0.6,0.8-1,1.3-1.2c0.4-0.3,0.9-0.4,1.3-0.4c0.6,0,1.4,0.4,2.3,1.1c0.9,0.8,2,1.6,3.5,2.5
		c1.5,0.9,3.3,1.7,5.5,2.5c2.2,0.7,5,1.1,8.2,1.1c2.2,0,4.2-0.3,6.1-0.8c1.9-0.5,3.6-1.2,5.1-2.2c1.5-0.9,2.9-2.1,4-3.5
		c1.1-1.4,2-3,2.6-4.7c0.7-2,0.8-3.7,0.2-5.1c-0.6-1.4-1.5-2.7-2.8-3.8c-1.3-1.1-2.9-2.2-4.7-3.1c-1.9-1-3.8-2-5.7-3.1
		c-1.9-1.1-3.7-2.3-5.4-3.7c-1.7-1.4-3.1-3-4.1-4.9c-1-1.9-1.6-4.2-1.7-6.8c-0.1-2.6,0.5-5.8,1.8-9.4c1.5-4.2,3.6-7.9,6.3-11.1
		c2.7-3.2,5.7-5.8,9.1-7.9c3.4-2.1,7-3.7,11-4.7c3.9-1,7.9-1.6,11.9-1.6c2.1,0,4.1,0.2,6,0.5c1.9,0.3,3.7,0.7,5.3,1.3
		c1.6,0.5,3,1.1,4.1,1.8c1.1,0.7,1.9,1.2,2.1,1.7c0.3,0.5,0.4,0.8,0.5,1.2c0,0.3,0,0.7,0,1.2c-0.1,0.5-0.2,1.2-0.5,2
		c-0.3,1-0.6,2-1,3c-0.5,1.3-0.9,2.4-1.3,3.3c-0.4,0.9-0.8,1.7-1.1,2.2c-0.4,0.6-0.8,1-1.1,1.3c-0.4,0.3-0.8,0.4-1.3,0.4
		c-0.5,0-1.2-0.3-2-0.9c-0.8-0.6-1.9-1.3-3.2-2.1c-1.3-0.8-2.9-1.4-4.7-2c-1.8-0.6-4-0.9-6.4-0.9c-1.9,0-3.7,0.2-5.3,0.7
		c-1.6,0.5-3,1.1-4.3,2c-1.3,0.8-2.3,1.8-3.2,3c-0.9,1.1-1.6,2.4-2.1,3.7c-0.7,1.9-0.8,3.6-0.2,5c0.5,1.4,1.5,2.7,2.9,3.8
		c1.4,1.1,3,2.1,4.9,3.1c1.9,1,3.8,2,5.7,3.1c1.9,1.1,3.8,2.3,5.5,3.7c1.7,1.4,3.1,3,4.2,5c1.1,1.9,1.6,4.2,1.8,6.8
		C215,512.7,214.4,515.8,213.1,519.3 M305.5,512.9c-1.9,5.4-4.5,10.2-7.6,14.4c-3.1,4.3-6.7,7.8-10.8,10.8
		c-4.1,2.9-8.7,5.2-13.7,6.7c-5,1.5-10.4,2.3-16.3,2.3c-5.4,0-10.1-0.7-14-2.1c-3.8-1.4-6.8-3.5-8.8-6.3c-2-2.8-3-6.3-3.1-10.5
		c-0.1-4.2,0.9-9.1,2.9-14.7l19.2-53.4c0.2-0.5,0.4-0.9,0.8-1.2c0.4-0.4,1-0.7,1.8-0.9c0.8-0.2,1.8-0.4,2.9-0.5
		c1.2-0.1,2.6-0.2,4.4-0.2c1.7,0,3.1,0.1,4.2,0.2c1.1,0.1,1.9,0.3,2.5,0.5c0.6,0.2,1,0.5,1.1,0.9c0.2,0.4,0.2,0.8,0,1.2l-18.7,51.8
		c-1.3,3.5-1.9,6.5-2,9.1c-0.1,2.6,0.4,4.7,1.4,6.3c1,1.7,2.4,2.9,4.3,3.8c1.9,0.8,4.2,1.3,7,1.3c2.8,0,5.4-0.4,7.9-1.3
		c2.5-0.9,4.9-2.1,6.9-3.8c2.1-1.6,4-3.7,5.7-6.1c1.7-2.4,3.1-5.2,4.2-8.2l19-52.8c0.2-0.5,0.4-0.9,0.8-1.2c0.4-0.4,1-0.7,1.7-0.9
		c0.8-0.2,1.7-0.4,2.9-0.5c1.2-0.1,2.6-0.2,4.3-0.2c1.7,0,3.1,0.1,4.1,0.2c1,0.1,1.9,0.3,2.4,0.5c0.6,0.2,1,0.5,1.1,0.9
		c0.1,0.4,0.1,0.8,0,1.2L305.5,512.9z M392.6,539.4c-0.4,1-0.9,2-1.5,2.8c-0.6,0.8-1.3,1.5-2.2,2c-0.8,0.5-1.7,0.9-2.6,1.2
		c-0.9,0.3-1.8,0.4-2.7,0.4h-7.5c-1.6,0-2.9-0.2-3.9-0.5c-1-0.3-1.9-0.9-2.5-1.7c-0.7-0.8-1.2-2-1.6-3.4c-0.4-1.4-0.7-3.3-1-5.5
		l-6.8-41c-0.4-2.6-0.7-5.2-1-7.9c-0.3-2.7-0.5-5.5-0.5-8.2h-0.1c-1,3.3-2,6.5-3.1,9.7c-1.1,3.3-2.3,6.7-3.5,10l-16.5,45.9
		c-0.2,0.4-0.4,0.9-0.8,1.2c-0.4,0.4-0.9,0.7-1.6,0.9c-0.7,0.3-1.6,0.4-2.6,0.6c-1.1,0.1-2.4,0.2-4.1,0.2c-1.6,0-2.8-0.1-3.8-0.2
		c-1-0.1-1.7-0.3-2.2-0.6c-0.5-0.2-0.8-0.6-0.9-0.9c-0.1-0.4-0.1-0.8,0.1-1.2l28.4-78.8c0.8-2.1,1.9-3.7,3.6-4.8
		c1.6-1.1,3.3-1.6,5.1-1.6h9.5c1.7,0,3.1,0.1,4.1,0.4c1.1,0.3,1.9,0.8,2.6,1.5c0.7,0.7,1.2,1.6,1.6,2.8c0.4,1.2,0.7,2.7,0.9,4.4
		l5.4,32.1c0.3,1.9,0.6,3.9,0.9,5.7c0.3,1.9,0.5,3.8,0.8,5.6c0.2,1.9,0.4,3.7,0.6,5.5c0.2,1.8,0.4,3.6,0.5,5.4h0.1
		c1-3.2,2.1-6.5,3.3-9.9c1.1-3.3,2.3-6.6,3.4-9.8l14.8-41.2c0.2-0.5,0.4-0.9,0.8-1.2c0.4-0.4,0.9-0.7,1.7-0.9
		c0.7-0.3,1.6-0.5,2.7-0.6c1.1-0.1,2.4-0.2,4-0.2c1.5,0,2.8,0.1,3.8,0.2c1,0.1,1.7,0.3,2.2,0.6c0.5,0.3,0.7,0.6,0.8,0.9
		c0.1,0.4,0.1,0.8-0.1,1.2L392.6,539.4z M512,471.5c-0.5,1.3-0.9,2.4-1.4,3.4c-0.5,0.9-0.9,1.7-1.3,2.3c-0.4,0.6-0.8,1-1.2,1.2
		c-0.4,0.2-0.8,0.3-1.2,0.3c-0.6,0-1.4-0.4-2.4-1.2c-1-0.8-2.4-1.7-4.2-2.6c-1.8-0.9-4.1-1.8-6.7-2.6c-2.7-0.8-6-1.2-9.9-1.2
		c-4.2,0-8.3,0.7-12.2,2.2c-3.9,1.5-7.6,3.5-11,6.2c-3.4,2.7-6.4,5.9-9.1,9.7c-2.7,3.8-4.8,7.9-6.5,12.5c-1.8,5-2.7,9.4-2.8,13.3
		c-0.1,3.8,0.6,7,2.1,9.6c1.4,2.6,3.6,4.5,6.5,5.8c2.9,1.3,6.3,2,10.3,2c2,0,4-0.2,6.1-0.7c2.1-0.5,4.1-1.1,6.1-2l7.3-20.3h-16.4
		c-0.8,0-1.2-0.5-1.3-1.5c-0.1-1,0.3-2.7,1.2-5.2c0.5-1.3,0.9-2.3,1.3-3.2c0.4-0.9,0.8-1.5,1.2-2.1c0.4-0.5,0.8-0.9,1.2-1.1
		c0.4-0.2,0.8-0.4,1.2-0.4h29.3c0.7,0,1.3,0.1,1.8,0.4c0.5,0.2,0.8,0.6,1.1,1.1c0.2,0.5,0.4,1.1,0.3,1.8c0,0.7-0.2,1.5-0.5,2.4
		l-12.6,34.9c-0.5,1.4-1.2,2.6-2,3.6c-0.8,1-2.1,1.8-3.8,2.4c-1.7,0.6-3.7,1.2-6.1,1.8c-2.4,0.6-4.8,1.2-7.3,1.6
		c-2.4,0.4-4.9,0.8-7.3,1c-2.4,0.2-4.8,0.3-7.2,0.3c-6.9,0-12.8-1-17.5-3c-4.8-2-8.4-4.9-10.8-8.7c-2.4-3.8-3.7-8.5-3.7-14
		c0-5.5,1.2-11.7,3.7-18.7c2.6-7.2,6-13.6,10.2-19.4c4.2-5.7,9-10.6,14.4-14.6c5.4-4,11.2-7.1,17.6-9.2c6.3-2.1,12.9-3.2,19.8-3.2
		c3.8,0,7.1,0.3,10,0.8c2.9,0.5,5.4,1.1,7.4,1.9c2,0.7,3.7,1.6,4.9,2.4c1.2,0.9,2,1.6,2.4,2.2c0.4,0.6,0.5,1.5,0.3,2.7
		C513.3,467.5,512.8,469.3,512,471.5"/>
</g>
</svg>
